<svg xmlns="http://www.w3.org/2000/svg" width="320" height="320" viewBox="0 0 320 320" version="1.1">
	<path d="M 29.200 9.750 L 29.500 15.500 39.750 15.785 L 50 16.070 50 10.035 L 50 4 39.450 4 L 28.900 4 29.200 9.750 M 54 14.500 L 54 25.100 59.750 24.800 L 65.500 24.500 65.500 14.500 L 65.500 4.500 59.750 4.200 L 54 3.900 54 14.500 M 69 10 L 69 16 136.483 16 L 203.966 16 206.483 11.033 C 207.867 8.302, 209 5.602, 209 5.033 C 209 4.332, 186.501 4, 139 4 L 69 4 69 10 M 29.439 20.298 C 29.165 21.012, 29.067 27.875, 29.220 35.548 L 29.500 49.500 35 49.500 L 40.500 49.500 40.779 35.077 C 40.988 24.208, 40.742 20.453, 39.779 19.842 C 37.687 18.514, 29.993 18.854, 29.439 20.298 M 79.464 19.870 C 79.209 20.125, 79 27.008, 79 35.167 L 79 50 84.526 50 L 90.052 50 89.776 34.819 L 89.500 19.638 84.714 19.522 C 82.081 19.458, 79.719 19.615, 79.464 19.870 M 45.200 34.649 L 45.500 40.298 60 40.399 L 74.500 40.500 74.800 34.750 L 75.100 29 60 29 L 44.900 29 45.200 34.649 M 94 34.500 L 94 40 99.750 40.096 C 107.784 40.231, 168.340 40.240, 180.708 40.109 L 190.916 40 193.458 35.662 C 194.856 33.276, 196 30.801, 196 30.162 C 196 29.294, 183.077 29, 145 29 L 94 29 94 34.500 M 54 80.500 L 54 117.100 59.750 116.800 L 65.500 116.500 65.500 80.500 L 65.500 44.500 59.750 44.200 L 54 43.900 54 80.500 M 29.700 53.633 C 29.315 54.018, 29 56.733, 29 59.667 L 29 65 39.550 65 L 50.100 65 49.800 59.250 L 49.500 53.500 39.950 53.216 C 34.698 53.060, 30.086 53.248, 29.700 53.633 M 69.667 53.667 C 69.300 54.033, 69 56.733, 69 59.667 L 69 65 123.483 65 L 177.966 65 180.483 60.033 C 181.867 57.302, 183 54.602, 183 54.033 C 183 52.875, 70.821 52.512, 69.667 53.667 M 29.218 80.750 L 29.500 92.500 35 92.500 L 40.500 92.500 40.782 80.750 L 41.063 69 35 69 L 28.937 69 29.218 80.750 M 79 81 L 79 93 84.500 93 L 90 93 90 81 L 90 69 84.500 69 L 79 69 79 81 M 29.667 96.667 C 29.300 97.033, 29 99.733, 29 102.667 L 29 108 39.500 108 L 50 108 50 102 L 50 96 40.167 96 C 34.758 96, 30.033 96.300, 29.667 96.667 M 69.667 96.667 C 69.300 97.033, 69 99.738, 69 102.677 L 69 108.021 112.246 107.761 L 155.493 107.500 158.223 102.500 C 159.725 99.750, 160.964 97.162, 160.977 96.750 C 161.005 95.824, 70.592 95.741, 69.667 96.667 M 29 127 L 29 142 35 142 L 41 142 41 127 L 41 112 35 112 L 29 112 29 127 M 79 127 L 79 142 84.500 142 L 90 142 90 127 L 90 112 84.500 112 L 79 112 79 127 M 45 127.027 L 45 133.053 59.750 132.777 L 74.500 132.500 74.800 126.750 L 75.100 121 60.050 121 L 45 121 45 127.027 M 94.200 126.750 L 94.500 132.500 118.496 132.500 L 142.492 132.500 145.223 127.500 C 146.725 124.750, 147.964 122.162, 147.977 121.750 C 147.989 121.338, 135.828 121, 120.950 121 L 93.900 121 94.200 126.750 M 54.239 176.700 L 54.500 217.500 58.208 217.808 C 60.247 217.977, 62.848 217.617, 63.988 217.007 C 66.038 215.909, 66.057 215.478, 65.780 176.199 L 65.500 136.500 59.739 136.200 L 53.977 135.900 54.239 176.700 M 29 151.500 L 29 157 39.500 157 L 50 157 50 151.500 L 50 146 39.500 146 L 29 146 29 151.500 M 69 151.500 L 69 157 99.301 157 L 129.601 157 132.028 152.250 C 133.362 149.637, 134.614 147.162, 134.810 146.750 C 135.006 146.338, 120.279 146, 102.083 146 L 69 146 69 151.500 M 29.234 189.250 L 29.500 217.500 35 217.500 L 40.500 217.500 40.766 189.250 L 41.031 161 35 161 L 28.969 161 29.234 189.250 M 79 188.941 C 79 204.339, 79.402 217.131, 79.897 217.436 C 80.390 217.741, 82.865 217.706, 85.397 217.359 L 90 216.728 90 188.864 L 90 161 84.500 161 L 79 161 79 188.941 M 300.573 234.154 C 298.488 238.334, 298.589 240, 300.927 240 C 302.693 240, 309 233.572, 309 231.772 C 309 231.347, 307.458 231, 305.573 231 C 302.728 231, 301.880 231.535, 300.573 234.154 M 1.472 243.213 C 1.190 243.947, 1.081 254.437, 1.230 266.524 L 1.500 288.500 4 288.500 C 6.485 288.500, 6.502 288.439, 6.785 278.283 L 7.069 268.067 17.785 267.783 C 28.472 267.501, 28.500 267.493, 28.500 265 C 28.500 262.505, 28.477 262.499, 17.705 262.216 L 6.910 261.931 7.205 255.216 L 7.500 248.500 19.750 248.219 C 31.880 247.941, 32 247.915, 32 245.576 C 32 244.277, 31.438 243.004, 30.750 242.748 C 30.063 242.492, 23.309 242.191, 15.742 242.080 C 5.049 241.923, 1.870 242.176, 1.472 243.213 M 53.123 242.924 C 51.237 244.090, 34.878 287.278, 35.926 288.326 C 36.436 288.836, 37.975 288.972, 39.345 288.628 C 41.348 288.126, 42.260 286.730, 43.999 281.502 L 46.163 275 55.861 275 L 65.559 275 68.048 281.750 C 70.049 287.176, 70.998 288.566, 72.884 288.835 C 77.899 289.550, 77.559 287.719, 68.510 265.297 C 63.672 253.309, 59.568 243.327, 59.390 243.116 C 58.751 242.359, 54.260 242.221, 53.123 242.924 M 82.381 243.450 C 82.149 244.054, 82.081 254.437, 82.230 266.524 L 82.500 288.500 95 288.429 C 104.710 288.373, 108.222 287.979, 110.733 286.662 C 114.755 284.552, 117 280.357, 117 274.950 C 117 271.540, 116.375 270.175, 113.497 267.297 L 109.995 263.795 112.497 260.821 C 116.861 255.634, 115.029 247.621, 108.733 244.358 C 104.844 242.343, 83.093 241.594, 82.381 243.450 M 126.250 242.710 C 124.614 243.307, 124.428 287.528, 126.057 288.535 C 126.638 288.894, 128.197 288.916, 129.521 288.584 C 131.831 288.004, 131.939 287.589, 132.214 278.240 L 132.500 268.500 137.212 268.560 C 143.954 268.647, 146.062 270.178, 152.063 279.345 C 154.999 283.830, 157.873 287.831, 158.451 288.235 C 160.191 289.453, 165 289.097, 164.995 287.750 C 164.987 285.759, 155.025 271.084, 152.914 269.954 C 150.161 268.481, 150.533 267.571, 154.470 266.147 C 160.063 264.125, 162.278 260.490, 161.761 254.185 C 161.172 247.012, 158.427 244.292, 150.459 242.987 C 144.541 242.019, 128.644 241.837, 126.250 242.710 M 173.731 242.682 C 172.096 243.118, 171.983 244.857, 172.231 265.827 L 172.500 288.500 175.500 288.500 L 178.500 288.500 178.500 265.514 C 178.500 241.024, 178.577 241.391, 173.731 242.682 M 198.907 244.327 C 190.097 248.978, 185.428 260.397, 187.872 271.317 C 189.467 278.445, 193.958 284.624, 199.312 287.055 C 203.900 289.138, 213.211 289.631, 217.461 288.015 C 219.573 287.212, 220.973 287.535, 225.035 289.765 C 229.323 292.118, 230.154 292.291, 230.994 291 C 232.522 288.650, 232.239 288.073, 228.459 285.844 C 225.107 283.866, 225.001 283.642, 226.452 281.627 C 231.233 274.994, 232.723 261.322, 229.388 254.700 C 227.079 250.116, 222.044 245.073, 218.128 243.422 C 212.826 241.186, 204.075 241.599, 198.907 244.327 M 239.709 242.624 C 239.319 243.014, 239 250.813, 239 259.955 C 239 275.225, 239.183 276.933, 241.250 280.964 C 244.511 287.324, 248.549 289.193, 258.182 288.802 C 266.914 288.449, 270.322 286.668, 273.248 280.929 C 274.712 278.059, 274.997 274.699, 274.998 260.309 C 274.999 250.854, 274.628 242.888, 274.174 242.607 C 273.719 242.326, 272.369 242.352, 271.174 242.665 C 269.056 243.219, 269 243.646, 268.996 259.367 C 268.993 273.582, 268.761 275.879, 267.048 278.689 C 265.251 281.637, 260.445 283.977, 256.151 283.994 C 253.255 284.006, 247.781 280.564, 246.773 278.097 C 246.190 276.668, 245.439 268.075, 245.106 259 C 244.532 243.383, 244.391 242.484, 242.459 242.208 C 241.336 242.047, 240.099 242.235, 239.709 242.624 M 286.731 242.688 C 285.096 243.119, 284.983 244.855, 285.231 265.827 L 285.500 288.500 302.500 288.500 L 319.500 288.500 319.816 285.750 L 320.133 283 306.066 283 L 292 283 292 275.500 L 292 268 304.500 268 L 317 268 317 265 L 317 262 304.500 262 L 292 262 292 255 L 292 248 305.500 248 L 319 248 319 245.617 C 319 244.182, 318.304 243.058, 317.250 242.792 C 314.875 242.193, 288.944 242.104, 286.731 242.688 M 204.352 248.092 C 197.058 250.205, 192.942 259.178, 194.381 269.828 C 195.446 277.716, 201.967 284, 209.089 284 C 213.333 284, 215.107 282.486, 212.015 281.505 C 209.667 280.760, 209.305 277.204, 211.492 276.365 C 212.312 276.050, 214.574 276.731, 216.517 277.878 L 220.052 279.963 221.966 276.815 C 227.784 267.248, 224.523 252.958, 215.595 248.904 C 211.105 246.865, 209.091 246.719, 204.352 248.092 M 89 254.977 L 89 262.212 97.098 261.844 C 104.148 261.524, 105.442 261.172, 107.098 259.127 C 109.488 256.176, 109.507 253.847, 107.165 250.955 C 105.601 249.024, 104.120 248.618, 97.165 248.216 L 89 247.743 89 254.977 M 132.206 255.250 L 132.500 262.500 141.803 262.419 C 152.497 262.327, 155.333 260.750, 155.333 254.900 C 155.333 249.451, 152.391 248, 141.345 248 L 131.912 248 132.206 255.250 M 52.250 259.015 C 50.462 263.868, 49 268.326, 49 268.920 C 49 270.180, 61.609 270.442, 62.378 269.198 C 62.818 268.485, 56.953 251.601, 55.914 250.593 C 55.686 250.372, 54.038 254.162, 52.250 259.015 M 89.583 267.750 C 89.262 268.071, 89 271.633, 89 275.667 L 89 283 95.935 283 C 104.112 283, 107.317 281.972, 109.493 278.651 C 111.471 275.632, 110.606 271.416, 107.627 269.559 C 105.438 268.193, 90.625 266.709, 89.583 267.750" stroke="none" fill="black" fill-rule="evenodd"/>
</svg>